{"scene":0,"asset":{"generator":"ImageToStl.com","version":"2.0"},"scenes":[{"name":"Scene","nodes":[0]}],"nodes":[{"name":"Node0","children":[1,2,3,4,5,6,7,8,9,10,11,12,13]},{"name":"Node1","mesh":0},{"name":"Node2","mesh":1},{"name":"Node3","mesh":2},{"name":"Node4","mesh":3},{"name":"Node5","mesh":4},{"name":"Node6","mesh":5},{"name":"Node7","mesh":6},{"name":"Node8","mesh":7},{"name":"Node9","mesh":8},{"name":"Node10","mesh":9},{"name":"Node11","mesh":10},{"name":"Node12","mesh":11},{"name":"Node13","mesh":12}],"materials":[{"name":"#40596BFF","pbrMetallicRoughness":{"baseColorFactor":[0.2509804,0.34901962,0.41960785,1.0],"metallicFactor":0.0,"roughnessFactor":0.4},"doubleSided":true},{"name":"#F2F2F2FF","pbrMetallicRoughness":{"baseColorFactor":[0.9490196,0.9490196,0.9490196,1.0],"metallicFactor":0.0,"roughnessFactor":0.4},"doubleSided":true},{"name":"#DDDDDDFF","pbrMetallicRoughness":{"baseColorFactor":[0.8666667,0.8666667,0.8666667,1.0],"metallicFactor":0.0,"roughnessFactor":0.4},"doubleSided":true},{"name":"#F4F4F430","pbrMetallicRoughness":{"baseColorFactor":[0.95686275,0.95686275,0.95686275,0.1882353],"metallicFactor":0.0,"roughnessFactor":0.4},"alphaMode":"BLEND","doubleSided":true},{"name":"#F3F3F37D","pbrMetallicRoughness":{"baseColorFactor":[0.9529412,0.9529412,0.9529412,0.49019608],"metallicFactor":0.0,"roughnessFactor":0.4},"alphaMode":"BLEND","doubleSided":true},{"name":"#F2F2F2AA","pbrMetallicRoughness":{"baseColorFactor":[0.9490196,0.9490196,0.9490196,0.6666667],"metallicFactor":0.0,"roughnessFactor":0.4},"alphaMode":"BLEND","doubleSided":true},{"name":"#F2F2F2EB","pbrMetallicRoughness":{"baseColorFactor":[0.9490196,0.9490196,0.9490196,0.92156863],"metallicFactor":0.0,"roughnessFactor":0.4},"alphaMode":"BLEND","doubleSided":true},{"name":"#F2F2F24D","pbrMetallicRoughness":{"baseColorFactor":[0.9490196,0.9490196,0.9490196,0.3019608],"metallicFactor":0.0,"roughnessFactor":0.4},"alphaMode":"BLEND","doubleSided":true},{"name":"#F2F2F2D2","pbrMetallicRoughness":{"baseColorFactor":[0.9490196,0.9490196,0.9490196,0.8235294],"metallicFactor":0.0,"roughnessFactor":0.4},"alphaMode":"BLEND","doubleSided":true},{"name":"#00000001","pbrMetallicRoughness":{"baseColorFactor":[0.0,0.0,0.0,0.003921569],"metallicFactor":0.0,"roughnessFactor":0.4},"alphaMode":"BLEND","doubleSided":true},{"name":"#F2F2F262","pbrMetallicRoughness":{"baseColorFactor":[0.9490196,0.9490196,0.9490196,0.38431373],"metallicFactor":0.0,"roughnessFactor":0.4},"alphaMode":"BLEND","doubleSided":true}],"meshes":[{"name":"Mesh0","primitives":[{"indices":2,"material":0,"attributes":{"POSITION":0,"NORMAL":1}}]},{"name":"Mesh0","primitives":[{"indices":5,"material":0,"attributes":{"POSITION":3,"NORMAL":4}}]},{"name":"Mesh0","primitives":[{"indices":8,"material":0,"attributes":{"POSITION":6,"NORMAL":7}}]},{"name":"Mesh0","primitives":[{"indices":11,"material":0,"attributes":{"POSITION":9,"NORMAL":10}}]},{"name":"Mesh0","primitives":[{"indices":14,"material":0,"attributes":{"POSITION":12,"NORMAL":13}}]},{"name":"Mesh0","primitives":[{"indices":17,"material":0,"attributes":{"POSITION":15,"NORMAL":16}}]},{"name":"Mesh0","primitives":[{"indices":20,"material":0,"attributes":{"POSITION":18,"NORMAL":19}}]},{"name":"Mesh0","primitives":[{"indices":23,"material":0,"attributes":{"POSITION":21,"NORMAL":22}}]},{"name":"Mesh0","primitives":[{"indices":26,"material":0,"attributes":{"POSITION":24,"NORMAL":25}}]},{"name":"Mesh0","primitives":[{"indices":29,"material":1,"attributes":{"POSITION":27,"NORMAL":28}}]},{"name":"Mesh0","primitives":[{"indices":32,"material":1,"attributes":{"POSITION":30,"NORMAL":31}}]},{"name":"Mesh0","primitives":[{"indices":35,"material":2,"attributes":{"POSITION":33,"NORMAL":34}}]},{"name":"Mesh0","primitives":[{"indices":38,"material":2,"attributes":{"POSITION":36,"NORMAL":37}}]}],"accessors":[{"bufferView":0,"componentType":5126,"count":3580,"type":"VEC3","min":[-1.9684047,-3.1875207,-0.19685],"max":[-0.5072004,3.1351523,0.19685]},{"bufferView":1,"componentType":5126,"count":3580,"type":"VEC3"},{"bufferView":2,"componentType":5123,"count":7164,"type":"SCALAR"},{"bufferView":3,"componentType":5126,"count":678,"type":"VEC3","min":[1.3513521,1.690365,-0.19685],"max":[1.968505,2.557655,0.19685]},{"bufferView":4,"componentType":5126,"count":678,"type":"VEC3"},{"bufferView":5,"componentType":5123,"count":1356,"type":"SCALAR"},{"bufferView":6,"componentType":5126,"count":714,"type":"VEC3","min":[1.3512148,0.44937608,-0.19685],"max":[1.9686484,1.319916,0.19685]},{"bufferView":7,"componentType":5126,"count":714,"type":"VEC3"},{"bufferView":8,"componentType":5123,"count":1416,"type":"SCALAR"},{"bufferView":9,"componentType":5126,"count":646,"type":"VEC3","min":[0.117046244,1.6883692,-0.19685],"max":[0.7258818,2.503543,0.19685]},{"bufferView":10,"componentType":5126,"count":646,"type":"VEC3"},{"bufferView":11,"componentType":5123,"count":1284,"type":"SCALAR"},{"bufferView":12,"componentType":5126,"count":586,"type":"VEC3","min":[0.73419917,1.2799245,-0.19685],"max":[1.3442584,1.9495165,0.19685]},{"bufferView":13,"componentType":5126,"count":586,"type":"VEC3"},{"bufferView":14,"componentType":5123,"count":1164,"type":"SCALAR"},{"bufferView":15,"componentType":5126,"count":712,"type":"VEC3","min":[0.73419917,2.5182674,-0.19685],"max":[1.3442584,3.1878178,0.19685]},{"bufferView":16,"componentType":5126,"count":712,"type":"VEC3"},{"bufferView":17,"componentType":5123,"count":1416,"type":"SCALAR"},{"bufferView":18,"componentType":5126,"count":544,"type":"VEC3","min":[-0.5001067,2.091991,-0.19685],"max":[0.10871626,2.9076636,0.19685]},{"bufferView":19,"componentType":5126,"count":544,"type":"VEC3"},{"bufferView":20,"componentType":5123,"count":1080,"type":"SCALAR"},{"bufferView":21,"componentType":5126,"count":480,"type":"VEC3","min":[0.11707251,0.44720846,-0.19685],"max":[0.7272194,1.2660755,0.19685]},{"bufferView":22,"componentType":5126,"count":480,"type":"VEC3"},{"bufferView":23,"componentType":5123,"count":948,"type":"SCALAR"},{"bufferView":24,"componentType":5126,"count":414,"type":"VEC3","min":[-0.5001067,0.85367906,-0.19685],"max":[0.11006744,1.6717534,0.19685]},{"bufferView":25,"componentType":5126,"count":414,"type":"VEC3"},{"bufferView":26,"componentType":5123,"count":816,"type":"SCALAR"},{"bufferView":27,"componentType":5126,"count":12207,"type":"VEC3","min":[-1.4037808,0.17399634,-0.19685],"max":[1.9682797,3.1892414,0.19685]},{"bufferView":28,"componentType":5126,"count":12207,"type":"VEC3"},{"bufferView":29,"componentType":5123,"count":24432,"type":"SCALAR"},{"bufferView":30,"componentType":5126,"count":816,"type":"VEC3","min":[-1.8443024,-3.1914606,-0.19685],"max":[-1.7204592,0.43924436,0.19685]},{"bufferView":31,"componentType":5126,"count":816,"type":"VEC3"},{"bufferView":32,"componentType":5123,"count":1620,"type":"SCALAR"},{"bufferView":33,"componentType":5126,"count":538,"type":"VEC3","min":[-1.7415062,0.256191,-0.19685],"max":[-1.3974705,1.0498164,0.19685]},{"bufferView":34,"componentType":5126,"count":538,"type":"VEC3"},{"bufferView":35,"componentType":5123,"count":1068,"type":"SCALAR"},{"bufferView":36,"componentType":5126,"count":352,"type":"VEC3","min":[-1.7415061,1.4909345,-0.19685],"max":[-1.4010081,2.2900946,0.19685]},{"bufferView":37,"componentType":5126,"count":352,"type":"VEC3"},{"bufferView":38,"componentType":5123,"count":696,"type":"SCALAR"}],"bufferViews":[{"target":34962,"buffer":0,"byteLength":42960,"byteOffset":0},{"target":34962,"buffer":0,"byteLength":42960,"byteOffset":42960},{"target":34963,"buffer":0,"byteLength":14328,"byteOffset":85920},{"target":34962,"buffer":0,"byteLength":8136,"byteOffset":100248},{"target":34962,"buffer":0,"byteLength":8136,"byteOffset":108384},{"target":34963,"buffer":0,"byteLength":2712,"byteOffset":116520},{"target":34962,"buffer":0,"byteLength":8568,"byteOffset":119232},{"target":34962,"buffer":0,"byteLength":8568,"byteOffset":127800},{"target":34963,"buffer":0,"byteLength":2832,"byteOffset":136368},{"target":34962,"buffer":0,"byteLength":7752,"byteOffset":139200},{"target":34962,"buffer":0,"byteLength":7752,"byteOffset":146952},{"target":34963,"buffer":0,"byteLength":2568,"byteOffset":154704},{"target":34962,"buffer":0,"byteLength":7032,"byteOffset":157272},{"target":34962,"buffer":0,"byteLength":7032,"byteOffset":164304},{"target":34963,"buffer":0,"byteLength":2328,"byteOffset":171336},{"target":34962,"buffer":0,"byteLength":8544,"byteOffset":173664},{"target":34962,"buffer":0,"byteLength":8544,"byteOffset":182208},{"target":34963,"buffer":0,"byteLength":2832,"byteOffset":190752},{"target":34962,"buffer":0,"byteLength":6528,"byteOffset":193584},{"target":34962,"buffer":0,"byteLength":6528,"byteOffset":200112},{"target":34963,"buffer":0,"byteLength":2160,"byteOffset":206640},{"target":34962,"buffer":0,"byteLength":5760,"byteOffset":208800},{"target":34962,"buffer":0,"byteLength":5760,"byteOffset":214560},{"target":34963,"buffer":0,"byteLength":1896,"byteOffset":220320},{"target":34962,"buffer":0,"byteLength":4968,"byteOffset":222216},{"target":34962,"buffer":0,"byteLength":4968,"byteOffset":227184},{"target":34963,"buffer":0,"byteLength":1632,"byteOffset":232152},{"target":34962,"buffer":0,"byteLength":146484,"byteOffset":233784},{"target":34962,"buffer":0,"byteLength":146484,"byteOffset":380268},{"target":34963,"buffer":0,"byteLength":48864,"byteOffset":526752},{"target":34962,"buffer":0,"byteLength":9792,"byteOffset":575616},{"target":34962,"buffer":0,"byteLength":9792,"byteOffset":585408},{"target":34963,"buffer":0,"byteLength":3240,"byteOffset":595200},{"target":34962,"buffer":0,"byteLength":6456,"byteOffset":598440},{"target":34962,"buffer":0,"byteLength":6456,"byteOffset":604896},{"target":34963,"buffer":0,"byteLength":2136,"byteOffset":611352},{"target":34962,"buffer":0,"byteLength":4224,"byteOffset":613488},{"target":34962,"buffer":0,"byteLength":4224,"byteOffset":617712},{"target":34963,"buffer":0,"byteLength":1392,"byteOffset":621936}],"buffers":[{"byteLength":623328,"uri":"data:application/octet-stream;base64,"}]}